<svg xmlns="http://www.w3.org/2000/svg" width="98" height="98" viewBox="0 0 98 98"><defs><style>.a{fill:#fff;opacity:.5}.b{fill:#040000}.c{fill:#969696}</style></defs><title>nav_menu_sp</title><path class="a" d="M0 0h98v98H0z"/><path class="b" d="M19 19h60v6H19zm0 16h60v6H19zm0 16h60v6H19z"/><path class="c" d="M27.58 70.41v7.84q0 .75-.78.75t-.8-.75v-7.84h-4.32a1.31 1.31 0 0 0-.91.25c-.21.23-.24.34-.24 1v6.58a.66.66 0 0 1-.75.75Q19 79 19 78.25v-6.86a2.46 2.46 0 0 1 .6-1.78 3.18 3.18 0 0 1 2.28-.61h9.8a3.11 3.11 0 0 1 2.24.61 2.46 2.46 0 0 1 .63 1.78v6.86q0 .75-.78.75t-.77-.75v-6.58a4.87 4.87 0 0 0 0-.67c-.13-.41-.49-.61-1.09-.61zm12.42 0c-.67 0-1 .2-1.1.61a2.77 2.77 0 0 0 0 .66v1.55h8.63c.57 0 .86.23.86.7s-.33.7-1 .7h-8.55v1.7A1.29 1.29 0 0 0 40 77.59h8.68q.83 0 .83.7c0 .47-.33.7-1 .7h-8.33a3.18 3.18 0 0 1-2.28-.61 2.51 2.51 0 0 1-.6-1.78v-5.21a2.46 2.46 0 0 1 .6-1.78 3.18 3.18 0 0 1 2.28-.61h8.48q.83 0 .83.7c0 .47-.33.7-1 .7zm13.78 0v7.84A.66.66 0 0 1 53 79q-.78 0-.78-.75V69h9.12a3.12 3.12 0 0 1 2.24.61 2.46 2.46 0 0 1 .63 1.78v6.86c0 .5-.28.75-.81.75a.66.66 0 0 1-.75-.75v-6.58a2.79 2.79 0 0 0 0-.66q-.19-.61-1.07-.61zm23.66 7.18v-7.84a.66.66 0 0 1 .75-.75c.54 0 .81.23.81.72V79h-9.12a3.18 3.18 0 0 1-2.28-.61 2.51 2.51 0 0 1-.6-1.78v-6.89c0-.48.26-.72.78-.72s.75.23.75.72v6.61a2.77 2.77 0 0 0 0 .66c.06.41.44.61 1.1.61z"/></svg>